<?xml version="1.0" encoding="iso-8859-1"?>
<!-- Generator: Adobe Illustrator 16.0.0, SVG Export Plug-In . SVG Version: 6.00 Build 0)  -->
<!DOCTYPE svg PUBLIC "-//W3C//DTD SVG 1.1//EN" "http://www.w3.org/Graphics/SVG/1.1/DTD/svg11.dtd">
<svg xmlns="http://www.w3.org/2000/svg" xmlns:xlink="http://www.w3.org/1999/xlink" version="1.1" id="Capa_1" x="0px" y="0px" width="512px" height="512px" viewBox="0 0 100 100" style="enable-background:new 0 0 100 100;" xml:space="preserve">
<g>
	<g>
		<g>
			<path d="M50,100C22.43,100,0,77.57,0,50C0,22.43,22.43,0,50,0c27.57,0,50,22.43,50,50C100,77.57,77.57,100,50,100z M50,6     C25.738,6,6,25.738,6,50c0,24.262,19.738,44,44,44c24.262,0,44-19.738,44-44C94,25.738,74.262,6,50,6z" fill="#27333b"/>
		</g>
		<g>
			<path d="M62.051,27.206c-9.605-9.608-25.238-9.608-34.845,0c-9.607,9.607-9.607,25.239,0,34.845     c9.277,9.278,24.172,9.596,33.835,0.953l1.953,1.953c-0.486,1.246-0.23,2.713,0.773,3.719l10.309,10.309     c1.355,1.354,3.553,1.354,4.906,0c1.354-1.354,1.354-3.553,0-4.906L68.676,63.77c-1.006-1.006-2.474-1.26-3.718-0.771     l-1.954-1.955C71.646,51.378,71.329,36.483,62.051,27.206z M30.15,59.107c-7.984-7.983-7.984-20.974,0-28.958     c7.983-7.984,20.974-7.983,28.958,0c7.982,7.983,7.982,20.973,0,28.958C51.124,67.092,38.134,67.092,30.15,59.107z" fill="#27333b"/>
			<path d="M35.015,34.836c3.487-3.487,7.54-6.019,11.802-7.597c-4.828-0.275-10,1.604-13.967,5.571     c-4.023,4.023-5.896,9.283-5.555,14.17C28.86,42.593,31.434,38.417,35.015,34.836z" fill="#27333b"/>
		</g>
	</g>
</g>
<g>
</g>
<g>
</g>
<g>
</g>
<g>
</g>
<g>
</g>
<g>
</g>
<g>
</g>
<g>
</g>
<g>
</g>
<g>
</g>
<g>
</g>
<g>
</g>
<g>
</g>
<g>
</g>
<g>
</g>
</svg>
