<?xml version="1.0" encoding="iso-8859-1"?>
<!-- Generator: Adobe Illustrator 19.0.0, SVG Export Plug-In . SVG Version: 6.00 Build 0)  -->
<svg version="1.1" id="Capa_1" xmlns="http://www.w3.org/2000/svg" xmlns:xlink="http://www.w3.org/1999/xlink" x="0px" y="0px"
	 viewBox="0 0 512.001 512.001" style="enable-background:new 0 0 512.001 512.001;" xml:space="preserve">
<g>
	<g>
		<path d="M224.477,106.645c-11.925,0-23.275,4.267-32.469,11.968c-9.195-7.701-20.544-11.968-32.469-11.968
			c-29.141,0-52.864,25.536-52.864,56.896c0,13.995,5.099,27.627,14.763,39.445c14.976,18.304,60.736,68.715,62.677,70.848
			c2.027,2.219,4.885,3.499,7.893,3.499c3.008,0,5.867-1.28,7.893-3.499c1.941-2.133,47.701-52.565,62.677-70.848
			c9.664-11.819,14.763-25.451,14.763-39.445C277.341,132.16,253.619,106.645,224.477,106.645z M246.045,189.504
			c-10.923,13.376-39.936,45.675-54.037,61.291c-14.08-15.616-43.093-47.936-54.037-61.291c-4.544-5.547-9.963-14.571-9.963-25.941
			c0-19.605,14.144-35.563,31.531-35.563c9.216,0,17.941,4.544,23.957,12.48c4.053,5.312,12.971,5.312,17.003,0
			c6.037-7.936,14.763-12.48,23.979-12.48c17.387,0,31.531,15.957,31.531,35.563C256.008,174.933,250.589,183.957,246.045,189.504z"
			/>
	</g>
</g>
<g>
	<g>
		<path d="M508.872,493.803L334.877,319.808c30.443-33.984,49.131-78.699,49.131-127.808c0-105.856-86.144-192-192-192
			s-192,86.144-192,192s86.144,192,192,192c49.088,0,93.803-18.688,127.787-49.109L493.79,508.886
			c2.091,2.069,4.821,3.115,7.552,3.115c2.731,0,5.461-1.045,7.531-3.115C513.032,504.725,513.032,497.963,508.872,493.803z
			 M313.245,311.957c-0.256,0.213-0.555,0.299-0.789,0.512c-0.235,0.235-0.32,0.533-0.512,0.789
			c-30.848,30.507-73.216,49.408-119.936,49.408c-94.101,0-170.667-76.565-170.667-170.667S97.907,21.333,192.008,21.333
			S362.675,97.899,362.675,192C362.675,238.72,343.773,281.088,313.245,311.957z"/>
	</g>
</g>
<g>
</g>
<g>
</g>
<g>
</g>
<g>
</g>
<g>
</g>
<g>
</g>
<g>
</g>
<g>
</g>
<g>
</g>
<g>
</g>
<g>
</g>
<g>
</g>
<g>
</g>
<g>
</g>
<g>
</g>
</svg>
