<?xml version="1.0" encoding="iso-8859-1"?>
<!-- Generator: Adobe Illustrator 16.0.0, SVG Export Plug-In . SVG Version: 6.00 Build 0)  -->
<!DOCTYPE svg PUBLIC "-//W3C//DTD SVG 1.1//EN" "http://www.w3.org/Graphics/SVG/1.1/DTD/svg11.dtd">
<svg xmlns="http://www.w3.org/2000/svg" xmlns:xlink="http://www.w3.org/1999/xlink" version="1.1" id="Capa_1" x="0px" y="0px" width="512px" height="512px" viewBox="0 0 44.236 44.236" style="enable-background:new 0 0 44.236 44.236;" xml:space="preserve">
<g>
	<g>
		<path d="M22.118,44.236C9.922,44.236,0,34.314,0,22.119C0,9.923,9.922,0,22.118,0s22.118,9.922,22.118,22.119    S34.314,44.236,22.118,44.236z M22.118,1.5C10.749,1.5,1.5,10.75,1.5,22.119s9.249,20.619,20.618,20.619    c11.368,0,20.618-9.25,20.618-20.619S33.486,1.5,22.118,1.5z" fill="#423f29"/>
		<g>
			<path d="M30.34,30.729c-0.191,0-0.384-0.073-0.529-0.221l-4.223-4.222c-0.293-0.293-0.293-0.769,0-1.062s0.768-0.293,1.061,0     l4.223,4.223c0.293,0.293,0.293,0.768,0,1.061C30.725,30.654,30.532,30.729,30.34,30.729z" fill="#423f29"/>
		</g>
		<path d="M21.118,27.736c-3.849,0-6.98-3.133-6.98-6.981s3.132-6.981,6.98-6.981c3.85,0,6.981,3.132,6.981,6.981    S24.968,27.736,21.118,27.736z M21.118,15.274c-3.021,0-5.48,2.459-5.48,5.481c0,3.022,2.459,5.481,5.48,5.481    c3.022,0,5.481-2.459,5.481-5.481C26.6,17.733,24.141,15.274,21.118,15.274z" fill="#423f29"/>
	</g>
</g>
<g>
</g>
<g>
</g>
<g>
</g>
<g>
</g>
<g>
</g>
<g>
</g>
<g>
</g>
<g>
</g>
<g>
</g>
<g>
</g>
<g>
</g>
<g>
</g>
<g>
</g>
<g>
</g>
<g>
</g>
</svg>
